<?xml version="1.0" encoding="utf-8"?>
<!-- Generator: Adobe Illustrator 28.1.0, SVG Export Plug-In . SVG Version: 6.00 Build 0)  -->
<svg version="1.1" id="Layer_1" xmlns="http://www.w3.org/2000/svg" xmlns:xlink="http://www.w3.org/1999/xlink" x="0px" y="0px"
	 viewBox="0 0 332.8 72" style="enable-background:new 0 0 332.8 72;" xml:space="preserve">
<style type="text/css">
	.st0{fill:#A1A1A1;}
	.st1{fill:#2F69B0;}
	.st2{fill:none;}
	.st3{fill:#2D69B0;}
</style>
<g>
	<path class="st0" d="M49.4,42.5c-1-0.2-2.1-0.2-3.2-0.3c0,0,0,0,0-0.1v3.7c0-0.1,0.1-0.2,0.1-0.3c4.9-0.4,9.1,3,9.5,8
		c0.5,4.8-3.1,8.8-7.4,9.4c-0.5,0.1-1.1,0.2-1.6,0.2c-9,0-18,0-27,0c0.1,0.5,0.2,1,0.2,1.6c0,0.6-0.1,1.1-0.2,1.6c9,0,17.9,0,26.9,0
		c7.4,0,12.7-5.6,12.4-13C58.9,48.2,54.5,43.3,49.4,42.5z"/>
	<path class="st0" d="M13.6,24.6c6.9,0,13.8,0,20.7,0c7.3,0,4.9,0,7.3,0v0h27.1c0.3-1.1,0.7-2.1,1-3.2H21.7v0c-2.7,0-5.4,0-8.1,0
		c-7.3,0-12.8,5.8-12.2,13.1c0.4,5.9,5.7,10.9,11.7,11c0.3,0,0.6,0,1,0c-0.1-0.5-0.2-1.1-0.2-1.6c0-0.6,0.1-1.1,0.2-1.7
		c-4,0.5-8-2.3-9.1-6.2C3.3,30.2,7.5,24.6,13.6,24.6z"/>
	<path class="st1" d="M30.2,30.7c7.2,0,13.1,5.9,13.1,13.1S37.4,57,30.2,57C22.9,57,17,51.1,17,43.9S22.9,30.7,30.2,30.7 M30.2,27.6
		c-9,0-16.3,7.3-16.3,16.3c0,9,7.3,16.3,16.3,16.3c9,0,16.3-7.3,16.3-16.3C46.4,34.9,39.1,27.6,30.2,27.6L30.2,27.6z"/>
	<path class="st2" d="M266.9,41.6c0-0.8-0.2-1.5-0.7-2c-0.5-0.5-1.1-0.8-1.9-0.8c-1.6,0-3,0.9-4.1,2.8c-1.1,1.9-1.7,4.2-1.7,6.9v0.1
		c2.6-0.6,4.6-1.5,6.1-2.8C266.1,44.6,266.9,43.2,266.9,41.6z"/>
	<path class="st2" d="M307.9,8.9c-0.3-0.9-0.6-1.4-1-1.4c-1.3,0-2.5,3.3-3.6,9.8c-0.2,1.4-0.4,2.8-0.6,4.2h4.6
		c0.7-3.2,1.1-6.1,1.1-8.7C308.3,11.1,308.2,9.8,307.9,8.9z"/>
	<path class="st2" d="M170.4,41.6c0-0.8-0.2-1.5-0.7-2c-0.5-0.5-1.1-0.8-1.9-0.8c-1.6,0-3,0.9-4.1,2.8c-1.1,1.9-1.7,4.2-1.7,6.9v0.1
		c2.6-0.6,4.6-1.5,6.1-2.8C169.6,44.6,170.4,43.2,170.4,41.6z"/>
	<path class="st2" d="M191,26.6c-1,5.4-1.5,10.6-1.6,15.6c3.1-5.2,5.6-10.3,7.5-15.5c0.3-0.7,0.5-1.4,0.7-2.2h-6.2
		C191.3,25.3,191.2,25.9,191,26.6z"/>
	<path class="st2" d="M199.7,12.6c0-3.3-0.6-5-1.8-5c-1,0-2.2,1.8-3.4,5.5c-0.8,2.4-1.6,5.2-2.3,8.4h6.4
		C199.3,18.3,199.7,15.3,199.7,12.6z"/>
	<path class="st2" d="M301,38.5c2.4-5.1,4.1-9.8,5.4-14h-4.1C301.6,29,301.2,33.6,301,38.5z"/>
	<path class="st2" d="M292.9,38.8c-2.4,0.7-4.4,2.3-6,4.8c-1.6,2.5-2.4,5.3-2.4,8.3c0,3.2,1.1,4.8,3.3,4.8c0.9,0,1.7-0.3,2.5-1
		c0.8-0.7,1.9-1.9,3.1-3.8c-0.4-3.2-0.7-6.5-0.7-10C292.8,40.6,292.9,39.5,292.9,38.8z"/>
	<path class="st2" d="M170.4,41.6c0-0.8-0.2-1.5-0.7-2c-0.5-0.5-1.1-0.8-1.9-0.8c-1.6,0-3,0.9-4.1,2.8c-1.1,1.9-1.7,4.2-1.7,6.9v0.1
		c2.6-0.6,4.6-1.5,6.1-2.8C169.6,44.6,170.4,43.2,170.4,41.6z"/>
	<path class="st2" d="M292.9,38.8c-2.4,0.7-4.4,2.3-6,4.8c-1.6,2.5-2.4,5.3-2.4,8.3c0,3.2,1.1,4.8,3.3,4.8c0.9,0,1.7-0.3,2.5-1
		c0.8-0.7,1.9-1.9,3.1-3.8c-0.4-3.2-0.7-6.5-0.7-10C292.8,40.6,292.9,39.5,292.9,38.8z"/>
	<path class="st2" d="M266.9,41.6c0-0.8-0.2-1.5-0.7-2c-0.5-0.5-1.1-0.8-1.9-0.8c-1.6,0-3,0.9-4.1,2.8c-1.1,1.9-1.7,4.2-1.7,6.9v0.1
		c2.6-0.6,4.6-1.5,6.1-2.8C266.1,44.6,266.9,43.2,266.9,41.6z"/>
	<path class="st3" d="M312.7,21.4c0.9-3.7,1.4-7,1.4-10.1c0-3.5-0.6-6.1-1.9-7.8C311,1.9,309.5,1,307.6,1c-3.9,0-7.1,3.1-9.4,9.3
		c-1.3,3.4-2.3,7.1-3.2,11.2c-0.2,1-0.4,2.1-0.6,3.1c-0.4,2.4-0.8,4.8-1,7.4c-3.2,0.4-6.1,1.6-8.7,3.5c-2.6,1.9-4.6,4.4-6.1,7.4
		c-1.4,2.9-2.2,6-2.2,9.4c-1.1,1-2.4,1.8-3.7,2.5c-2.5,1.4-4.8,2.1-6.8,2.1c-3.1,0-5.2-1-6.3-3c5.2-1.3,8.9-3,11.1-5.2
		c2.2-2.2,3.3-4.8,3.3-7.8c0-2.6-0.8-4.7-2.3-6.2c-1.5-1.5-3.6-2.3-6.1-2.3c-2.9,0-5.4,0.8-7.7,2.3c-2.3,1.5-4,3.6-5.3,6.2
		c-1.3,2.6-1.9,5.5-1.9,8.5c0,1,0.1,1.9,0.2,2.8c-0.9,1-1.7,1.8-2.4,2.4c-1.2,1.1-2.3,1.6-3.1,1.6c-1.3,0-1.9-0.9-1.9-2.6
		c0-1.2,0.4-3.8,1.3-7.6c1-4.5,1.5-7.6,1.5-9.3c0-2.9-1.4-4.3-4.3-4.3c-1.5,0-3.1,0.5-4.8,1.5c-1.7,1-3.5,2.7-5.3,5.1
		c-1.8,2.4-3.4,5.5-4.9,9.2c0.2-1.9,0.4-3.6,0.7-4.9c0.3-1.3,0.6-2.9,1.1-4.6c0.7-2.5,1-4.1,1-4.8c0-0.6-0.2-1-0.5-1.3
		c-0.4-0.2-1-0.3-1.9-0.3c-1.6,0-2.9,0.3-3.8,0.9c-0.9,0.6-1.6,1.5-1.9,2.8c-1.5,4.8-2.3,9.8-2.4,15.1c-1.3,1.5-2.4,2.6-3.2,3.4
		c-1.2,1.1-2.2,1.7-3,1.7c-0.8,0-1.4-0.4-1.8-1.1c-0.4-0.7-0.5-1.7-0.5-3c0-1.7,0.5-5,1.6-9.8c0.8-4,1.3-6.6,1.3-7.7
		c0-1.5-1.1-2.2-3.4-2.2c-1.5,0-2.5,0.3-3.2,0.8c-0.7,0.5-1.2,1.5-1.6,2.9c-0.8,2.7-1.4,5.6-1.9,8.7c-0.4,2.6-0.7,4.8-0.7,6.6
		c-1.3,1.5-2.5,2.6-3.5,3.3c-1.4,1-3,1.6-4.8,1.6c-1.1,0-2.1-0.4-2.8-1.2c-0.7-0.8-1.2-2.1-1.5-3.9c5-6.8,8.9-13.6,11.8-20.5
		c0.9-2.1,1.6-4.1,2.2-6h-6.3c-0.2,0.7-0.4,1.4-0.7,2.2c-1.8,5.2-4.3,10.3-7.5,15.5c0.1-5,0.6-10.2,1.6-15.6
		c0.1-0.7,0.3-1.4,0.4-2.1c0.2-1.1,0.4-2.1,0.7-3.1c0.7-3.2,1.5-6,2.3-8.4c1.3-3.7,2.4-5.5,3.4-5.5c1.2,0,1.8,1.7,1.8,5
		c0,2.8-0.4,5.7-1.2,8.9h6.4c0.8-3.3,1.3-6.3,1.3-9.1c0-3.7-0.6-6.5-1.8-8.4c-1.2-2-2.9-2.9-5-2.9c-3.7,0-7,2.5-9.7,7.4
		c-2.1,3.8-3.8,8.1-5,13c-0.3,1-0.5,2.1-0.7,3.1c-0.1,0.5-0.3,1-0.4,1.5c-1.4,6.9-2.1,13-2.1,18.4c0,2,0.2,3.9,0.4,5.7
		c-1.7,1.8-3.6,3.4-5.7,4.6c-2.5,1.4-4.8,2.1-6.8,2.1c-3.1,0-5.2-1-6.3-3c5.2-1.3,8.9-3,11.1-5.2c2.2-2.2,3.3-4.8,3.3-7.8
		c0-2.6-0.8-4.7-2.3-6.2c-1.5-1.5-3.6-2.3-6.1-2.3c-2.9,0-5.4,0.8-7.7,2.3c-2.3,1.5-4,3.6-5.3,6.2c-1.3,2.6-1.9,5.5-1.9,8.5
		c0,1,0.1,1.9,0.2,2.8c-0.9,1-1.7,1.8-2.4,2.4c-1.2,1.1-2.3,1.6-3.1,1.6c-1.3,0-1.9-0.9-1.9-2.6c0-1.2,0.4-3.8,1.3-7.6
		c1-4.5,1.5-7.6,1.5-9.3c0-2.9-1.4-4.3-4.3-4.3c-2.3,0-4.8,1.2-7.5,3.7c-2.7,2.5-5.1,6.4-7.3,11.8c0.1-0.8,0.4-2,0.7-3.6
		c0.8-3.7,1.3-6.3,1.3-7.7c0-1.5-0.3-2.5-1-3.2c-0.6-0.7-1.7-1.1-3.3-1.1s-3.2,0.6-4.9,1.8c-1.7,1.2-3.4,2.9-5.1,5.3
		c-1.6,2.4-3.1,5.3-4.3,8.7c0.2-1.9,0.4-3.6,0.7-4.9c0.3-1.3,0.6-2.8,1.1-4.6c0.7-2.5,1-4.1,1-4.8c0-0.6-0.2-1-0.5-1.3
		c-0.4-0.2-1-0.3-1.8-0.3c-1.6,0-2.9,0.3-3.8,0.9c-0.9,0.6-1.6,1.5-1.9,2.8c-1.5,4.8-2.3,9.8-2.4,15.1c-1.3,1.5-2.4,2.6-3.2,3.4
		c-1.2,1.1-2.2,1.7-3,1.7c-0.8,0-1.4-0.4-1.8-1.1c-0.4-0.7-0.5-1.7-0.5-3c0-1.7,0.5-5,1.6-9.8c0.8-4,1.3-6.6,1.3-7.7
		c0-1.5-1.1-2.2-3.4-2.2c-1.5,0-2.5,0.3-3.2,0.8c-0.7,0.5-1.2,1.5-1.6,2.9c-0.8,2.7-1.4,5.6-1.9,8.7c-0.4,2.6-0.7,4.7-0.7,6.5
		c-1.3,1.3-2.4,2.4-3.4,3.2c-1.5,1.1-3.1,1.7-5,1.7c-2.3,0-4-0.9-5.1-2.8c-1.1-1.8-1.6-5.1-1.6-9.6c0-1.2,0-3,0.1-5.2h8.1
		c5,0,7.5-1.5,7.5-4.6c0-0.8-0.2-1.4-0.5-1.7c-0.3-0.3-0.8-0.5-1.5-0.5h-7.4c2.5-2.2,4.5-4.7,5.9-7.3h-6.2c-1.3,2.3-3,4.4-5.1,6.3
		c0.3-2.2,0.7-4.3,1.1-6.3c0.2-1.1,0.4-2.2,0.7-3.2c0-0.1,0-0.2,0.1-0.3c0.7-2.9,1.5-5.2,2.3-6.9c0.8-1.7,1.6-2.5,2.2-2.5
		c1,0,1.5,1.3,1.5,3.9c0,1.8-0.4,3.7-1.2,5.7H88c0.8-2.3,1.2-4.8,1.2-7.4c0-2.5-0.5-4.5-1.6-6.1c-1.1-1.6-2.5-2.4-4.4-2.4
		c-2.5,0-4.9,1.2-7,3.6c-2.2,2.4-4,5.6-5.6,9.6c-0.3,0.9-0.6,1.9-0.9,2.8c-0.3,1.1-0.7,2.1-1,3.2c-0.6,2.3-1.1,4.7-1.5,7.3h-3.8
		c-2,0-3,1.2-3,3.7c0,1.1,0.2,1.8,0.7,2.3c0.5,0.5,1.4,0.7,2.7,0.7h2.6c-0.1,2-0.2,3.9-0.2,5.9c0,12.6,4.5,19,13.5,19
		c2.9,0,5.5-0.7,7.7-2.2c1.1-0.7,2.1-1.6,3.1-2.5c0.2,0.6,0.5,1.2,0.9,1.7c1.3,2,3.4,3,6.2,3c2.8,0,5.7-1.4,8.8-4.3
		c0.1,0.6,0.3,1.2,0.5,1.7c0.7,1.8,1.9,2.6,3.5,2.6c1.4,0,2.4-0.4,3-1.1c0.6-0.7,1.2-2.1,1.7-4.2c0.6-2.4,1.3-4.8,2.3-7.3
		c0.9-2.5,1.9-4.5,2.9-6.1c1-1.6,1.8-2.4,2.5-2.4c0.5,0,0.7,0.4,0.7,1.1c0,0.9-0.2,2.7-0.5,5.5c-0.4,3.2-0.7,5.6-0.7,7.3
		c0,2,0.4,3.7,1.1,5.1c0.7,1.4,1.8,2.1,3.3,2.1c1.4,0,2.4-0.4,3.1-1.1c0.6-0.7,1.2-2.1,1.7-4.2c0.7-2.7,1.5-5.2,2.6-7.7
		c1.1-2.4,2.1-4.4,3.2-5.8c1.1-1.5,1.9-2.2,2.4-2.2c0.5,0,0.7,0.4,0.7,1.1c0,1.1-0.3,3-0.9,5.7c-0.6,3.2-0.9,5.4-0.9,6.6
		c0,2.5,0.6,4.4,1.7,5.6c1.1,1.3,2.8,1.9,5.1,1.9c2.8,0,5.3-0.7,7.4-2.2c1.3-0.9,2.4-1.9,3.6-3c0.4,0.5,0.8,1.1,1.2,1.5
		c2.6,2.5,6.1,3.8,10.8,3.8c3.4,0,6.6-0.8,9.5-2.5c2.2-1.3,4.1-2.6,5.5-4c0.2,0.4,0.3,0.9,0.5,1.2c1.9,3.5,4.7,5.3,8.6,5.3
		c2.8,0,5.3-0.7,7.6-2.2c1.1-0.7,2.1-1.6,3.1-2.5c0.2,0.6,0.5,1.2,0.9,1.7c1.3,2,3.4,3,6.2,3c2.8,0,5.7-1.4,8.8-4.3
		c0.1,0.6,0.3,1.2,0.5,1.7c0.7,1.8,1.9,2.6,3.5,2.6c1.4,0,2.4-0.4,3-1.1c0.6-0.7,1.2-2.1,1.7-4.2c0.7-2.7,1.5-5.2,2.6-7.7
		c1.1-2.4,2.1-4.4,3.2-5.8c1-1.5,1.8-2.2,2.4-2.2c0.5,0,0.7,0.4,0.7,1.1c0,1.1-0.3,3-0.9,5.7c-0.6,3.2-0.9,5.4-0.9,6.6
		c0,2.5,0.6,4.4,1.7,5.6c1.1,1.3,2.8,1.9,5.1,1.9c2.8,0,5.3-0.7,7.4-2.2c1.3-0.9,2.5-1.9,3.6-3c0.4,0.5,0.8,1.1,1.2,1.5
		c2.6,2.5,6.1,3.8,10.8,3.8c3.4,0,6.6-0.8,9.5-2.5c1.2-0.7,2.2-1.3,3.1-2c0.3,0.5,0.7,1.1,1.1,1.5c1.7,2,4,3,6.6,3
		c1.8,0,3.3-0.4,4.7-1.1c1.3-0.7,2.9-2.1,4.5-4.2l0.1,0.3c0.6,2.1,1.3,3.5,2,4.2c0.7,0.7,1.8,1.1,3.1,1.1c2.4,0,3.6-1,3.6-3
		c0-0.6-0.1-1.2-0.3-1.8c-0.9-3.5-1.6-7.1-2.1-10.7c3.9-6.9,7.1-13.5,9.4-20c0.5-1.3,0.9-2.5,1.3-3.8h-5.5c-1.2,4.2-3,8.8-5.4,14
		c0.3-4.9,0.7-9.5,1.2-14c0.1-1.1,0.3-2.1,0.4-3.1c0.2-1.4,0.4-2.8,0.6-4.2c1.1-6.5,2.3-9.8,3.6-9.8c0.4,0,0.7,0.5,1,1.4
		c0.3,0.9,0.4,2.2,0.4,3.9c0,2.6-0.4,5.5-1.1,8.7H312.7z M162,48.5c0-2.7,0.6-5,1.7-6.9c1.1-1.9,2.5-2.8,4.1-2.8
		c0.8,0,1.4,0.3,1.9,0.8c0.5,0.5,0.7,1.2,0.7,2c0,1.6-0.7,3.1-2.2,4.3c-1.5,1.2-3.5,2.2-6.1,2.8V48.5z M258.5,48.5
		c0-2.7,0.6-5,1.7-6.9c1.1-1.9,2.5-2.8,4.1-2.8c0.8,0,1.4,0.3,1.9,0.8c0.5,0.5,0.7,1.2,0.7,2c0,1.6-0.7,3.1-2.2,4.3
		c-1.5,1.2-3.5,2.2-6.1,2.8V48.5z M290.4,55.8c-0.8,0.7-1.7,1-2.5,1c-2.2,0-3.3-1.6-3.3-4.8c0-3,0.8-5.8,2.4-8.3
		c1.6-2.5,3.6-4.1,6-4.8c0,0.7-0.1,1.8-0.1,3.2c0,3.4,0.2,6.8,0.7,10C292.2,53.8,291.2,55.1,290.4,55.8z"/>
	<path class="st3" d="M30.3,45.6c1.1,0,1.5-0.5,1.5-1.6c0-2.3,0-4.7,0-7c0-0.2,0-0.4-0.1-0.6c-0.9,0-1.7,0-2.6,0c0,2.2,0,4.4,0,6.6
		c-1.8,0-3.5,0-5.2,0c0,0.9,0,1.7,0,2.6C26.1,45.6,28.2,45.6,30.3,45.6z"/>
	<path class="st1" d="M13.9,61.7c1.7,0,3.1,1.4,3.1,3.1s-1.4,3.1-3.1,3.1s-3.1-1.4-3.1-3.1S12.2,61.7,13.9,61.7 M13.9,58.5
		c-3.4,0-6.2,2.8-6.2,6.2s2.8,6.2,6.2,6.2c3.4,0,6.2-2.8,6.2-6.2S17.3,58.5,13.9,58.5L13.9,58.5z"/>
	<path class="st0" d="M319,22.9c0-0.5,0.1-1,0.2-1.4h-6.4h-5.6h-4.6c-0.1,1-0.3,2.1-0.4,3.1h4.1h5.5h7.4v-0.1
		C319.1,24,319,23.4,319,22.9z"/>
	<path class="st0" d="M295,21.4h-77c0.1,0.5,0.2,0.9,0.2,1.4c0,0.6-0.1,1.2-0.3,1.7h76.5C294.6,23.5,294.8,22.5,295,21.4z"/>
	<path class="st0" d="M205.8,21.4h-1h-6.4h-6.4c-0.2,1-0.4,2.1-0.7,3.1h6.2h6.3h1.9v-0.1c-0.1-0.5-0.2-1.1-0.2-1.6
		C205.6,22.4,205.7,21.9,205.8,21.4z"/>
	<path class="st0" d="M184.6,21.4H105c0.1,0.5,0.2,0.9,0.2,1.4c0,0.6-0.1,1.2-0.3,1.7h78.9C184.1,23.5,184.3,22.4,184.6,21.4z"/>
	<path class="st0" d="M92.9,21.4H88h-6.2h-4.9c-0.2,1-0.5,2.1-0.7,3.2h4.1h6.2H93c-0.2-0.6-0.3-1.1-0.3-1.7
		C92.7,22.4,92.8,21.9,92.9,21.4z"/>
	<path class="st1" d="M211.9,19.8c1.7,0,3.1,1.4,3.1,3.1c0,1.7-1.4,3.1-3.1,3.1s-3.1-1.4-3.1-3.1C208.8,21.1,210.2,19.8,211.9,19.8
		 M211.9,16.6c-3.4,0-6.2,2.8-6.2,6.2c0,3.4,2.8,6.2,6.2,6.2c3.4,0,6.2-2.8,6.2-6.2C218.1,19.4,215.3,16.6,211.9,16.6L211.9,16.6z"
		/>
	<path class="st1" d="M325.2,19.8c1.7,0,3.1,1.4,3.1,3.1c0,1.7-1.4,3.1-3.1,3.1s-3.1-1.4-3.1-3.1C322.1,21.1,323.5,19.8,325.2,19.8
		 M325.2,16.6c-3.4,0-6.2,2.8-6.2,6.2c0,3.4,2.8,6.2,6.2,6.2c3.4,0,6.2-2.8,6.2-6.2C331.5,19.4,328.7,16.6,325.2,16.6L325.2,16.6z"
		/>
	<path class="st1" d="M99,19.8c1.7,0,3.1,1.4,3.1,3.1c0,1.7-1.4,3.1-3.1,3.1s-3.1-1.4-3.1-3.1C95.9,21.1,97.3,19.8,99,19.8 M99,16.6
		c-3.4,0-6.2,2.8-6.2,6.2c0,3.4,2.8,6.2,6.2,6.2c3.4,0,6.2-2.8,6.2-6.2C105.2,19.4,102.4,16.6,99,16.6L99,16.6z"/>
</g>
</svg>
